<?xml version="1.0" encoding="UTF-8" standalone="no"?>
<!-- Created with Inkscape (http://www.inkscape.org/) -->

<svg
   xmlns:dc="http://purl.org/dc/elements/1.1/"
   xmlns:cc="http://creativecommons.org/ns#"
   xmlns:rdf="http://www.w3.org/1999/02/22-rdf-syntax-ns#"
   xmlns:svg="http://www.w3.org/2000/svg"
   xmlns="http://www.w3.org/2000/svg"
   xmlns:sodipodi="http://sodipodi.sourceforge.net/DTD/sodipodi-0.dtd"
   xmlns:inkscape="http://www.inkscape.org/namespaces/inkscape"
   width="38"
   height="16"
   id="svg3797"
   version="1.1"
   inkscape:version="0.92.4 (5da689c313, 2019-01-14)"
   sodipodi:docname="file_cad.svg"
   inkscape:export-filename="D:\dev\workspaces\potree\develop\resources\icons\point.png"
   inkscape:export-xdpi="90"
   inkscape:export-ydpi="90">
  <defs
     id="defs3799" />
  <sodipodi:namedview
     id="base"
     pagecolor="#ffffff"
     bordercolor="#666666"
     borderopacity="1.0"
     inkscape:pageopacity="0.0"
     inkscape:pageshadow="2"
     inkscape:zoom="45.254834"
     inkscape:cx="20.199455"
     inkscape:cy="6.2138654"
     inkscape:current-layer="layer1"
     showgrid="true"
     inkscape:grid-bbox="true"
     inkscape:document-units="px"
     inkscape:window-width="3840"
     inkscape:window-height="2080"
     inkscape:window-x="-11"
     inkscape:window-y="-11"
     inkscape:window-maximized="1">
    <inkscape:grid
       type="xygrid"
       id="grid3805"
       empspacing="5"
       visible="true"
       enabled="true"
       snapvisiblegridlinesonly="true" />
  </sodipodi:namedview>
  <metadata
     id="metadata3802">
    <rdf:RDF>
      <cc:Work
         rdf:about="">
        <dc:format>image/svg+xml</dc:format>
        <dc:type
           rdf:resource="http://purl.org/dc/dcmitype/StillImage" />
        <dc:title></dc:title>
      </cc:Work>
    </rdf:RDF>
  </metadata>
  <g
     id="layer1"
     inkscape:label="Layer 1"
     inkscape:groupmode="layer"
     transform="translate(0,-16)">
    <g
       id="g7127"
       transform="matrix(0.90156931,0,0,1,1.870183,2e-5)"
       style="stroke-width:1.05317473;fill:#2e0e7f;fill-opacity:1;stroke:none">
      <path
         id="path4774"
         d="m 10.716248,19.925548 c -1.4104782,0 -2.5355744,0.348594 -3.3295388,1.057869 -0.7909905,0.706656 -1.1776969,1.718878 -1.1776969,2.999134 0,0.96048 0.2180005,1.762569 0.6688157,2.396735 0.4420798,0.621878 0.9763802,1.067969 1.6014184,1.324174 v 0.0018 h 0.00208 c 0.6243111,0.250591 1.4104787,0.369152 2.3574716,0.369152 0.783762,0 1.438413,-0.09777 1.964904,-0.306709 0.524816,-0.206647 0.966749,-0.516403 1.318939,-0.921962 0.353037,-0.406537 0.608176,-0.908583 0.768514,-1.500485 l 0.03946,-0.1506 -2.675262,-0.716266 -0.04362,0.174475 c -0.112011,0.458896 -0.289246,0.795862 -0.519267,1.017465 h -0.0021 c -0.2158,0.211053 -0.532699,0.323238 -1.003223,0.323238 -0.479243,0 -0.8170236,-0.13233 -1.0696901,-0.404047 -0.2362701,-0.25694 -0.3904624,-0.801478 -0.3904624,-1.62354 0,-0.659882 0.1236402,-1.126546 0.3302536,-1.397636 l 0.00208,-0.0018 c 0.289195,-0.386686 0.6705299,-0.565663 1.2192359,-0.565663 0.238798,0 0.447334,0.04292 0.633505,0.126724 0.187739,0.08451 0.343776,0.204079 0.475648,0.363642 h 0.0021 c 0.06733,0.08024 0.150192,0.23646 0.228478,0.457309 l 0.04983,0.143253 2.702265,-0.530771 -0.06647,-0.172639 c -0.30857,-0.822075 -0.789649,-1.448202 -1.445638,-1.856781 -0.655922,-0.410595 -1.540955,-0.606071 -2.64203,-0.606071 z"
         style="color:#000000;font-style:italic;font-variant:normal;font-weight:bold;font-stretch:normal;font-size:11.22941494px;line-height:1.25;font-family:Arial;-inkscape-font-specification:'Arial Bold Italic';font-variant-ligatures:normal;font-variant-position:normal;font-variant-caps:normal;font-variant-numeric:normal;font-variant-alternates:normal;font-feature-settings:normal;text-indent:0;text-align:start;text-decoration:none;text-decoration-line:none;text-decoration-style:solid;text-decoration-color:#000000;letter-spacing:0px;word-spacing:0px;text-transform:none;writing-mode:lr-tb;direction:ltr;text-orientation:mixed;dominant-baseline:auto;baseline-shift:baseline;text-anchor:start;white-space:normal;shape-padding:0;clip-rule:nonzero;display:inline;overflow:visible;visibility:visible;opacity:1;isolation:auto;mix-blend-mode:normal;color-interpolation:sRGB;color-interpolation-filters:linearRGB;solid-color:#000000;solid-opacity:1;vector-effect:none;fill:#2e0e7f;fill-opacity:1;fill-rule:nonzero;stroke:none;stroke-width:0.78988105;stroke-linecap:round;stroke-linejoin:round;stroke-miterlimit:4;stroke-dasharray:none;stroke-dashoffset:0;stroke-opacity:1;color-rendering:auto;image-rendering:auto;shape-rendering:auto;text-rendering:auto;enable-background:accumulate"
         inkscape:connector-curvature="0" />
      <path
         id="path4768"
         d="m 17.86716,20.383499 -3.074219,7.228515 h 2.292969 l 0.414062,-1.248046 h 3.148438 0.138671 l 0.419922,1.248046 h 2.357422 l -3.074218,-7.228515 z m 1.283203,2.353515 0.693359,1.992188 H 18.46091 Z"
         style="color:#000000;font-style:italic;font-variant:normal;font-weight:bold;font-stretch:normal;font-size:11.22941494px;line-height:1.25;font-family:Arial;-inkscape-font-specification:'Arial Bold Italic';font-variant-ligatures:normal;font-variant-position:normal;font-variant-caps:normal;font-variant-numeric:normal;font-variant-alternates:normal;font-feature-settings:normal;text-indent:0;text-align:start;text-decoration:none;text-decoration-line:none;text-decoration-style:solid;text-decoration-color:#000000;letter-spacing:0px;word-spacing:0px;text-transform:none;writing-mode:lr-tb;direction:ltr;text-orientation:mixed;dominant-baseline:auto;baseline-shift:baseline;text-anchor:start;white-space:normal;shape-padding:0;clip-rule:nonzero;display:inline;overflow:visible;visibility:visible;opacity:1;isolation:auto;mix-blend-mode:normal;color-interpolation:sRGB;color-interpolation-filters:linearRGB;solid-color:#000000;solid-opacity:1;vector-effect:none;fill:#2e0e7f;fill-opacity:1;fill-rule:nonzero;stroke:none;stroke-width:0.78988105;stroke-linecap:round;stroke-linejoin:round;stroke-miterlimit:4;stroke-dasharray:none;stroke-dashoffset:0;stroke-opacity:1;color-rendering:auto;image-rendering:auto;shape-rendering:auto;text-rendering:auto;enable-background:accumulate"
         inkscape:connector-curvature="0" />
      <path
         id="path4766"
         d="m 24.296847,20.383499 v 7.228515 h 3.738281 c 0.449865,0 0.958356,-0.06657 1.525391,-0.201172 0.392019,-0.09222 0.760576,-0.27457 1.111328,-0.558593 0.348698,-0.285607 0.619576,-0.636943 0.816406,-1.060547 v -0.002 c 0.194679,-0.414407 0.302735,-1.023202 0.302735,-1.81836 0,-0.502428 -0.06965,-0.976137 -0.205078,-1.421875 -0.134023,-0.441103 -0.346071,-0.821573 -0.640625,-1.15039 -0.292189,-0.326178 -0.660641,-0.576241 -1.113282,-0.751953 -0.440013,-0.172211 -1.040122,-0.263672 -1.796875,-0.263672 z m 2.640625,1.710937 h 0.474609 c 0.653867,0 1.07989,0.138344 1.328126,0.386719 0.240214,0.24035 0.398437,0.754114 0.398437,1.537109 0,0.594366 -0.07126,1.019215 -0.183594,1.25 -0.119274,0.241254 -0.273653,0.394475 -0.46289,0.484375 -0.180051,0.08225 -0.555286,0.142578 -1.09375,0.142579 h -0.460938 z"
         style="color:#000000;font-style:italic;font-variant:normal;font-weight:bold;font-stretch:normal;font-size:11.22941494px;line-height:1.25;font-family:Arial;-inkscape-font-specification:'Arial Bold Italic';font-variant-ligatures:normal;font-variant-position:normal;font-variant-caps:normal;font-variant-numeric:normal;font-variant-alternates:normal;font-feature-settings:normal;text-indent:0;text-align:start;text-decoration:none;text-decoration-line:none;text-decoration-style:solid;text-decoration-color:#000000;letter-spacing:0px;word-spacing:0px;text-transform:none;writing-mode:lr-tb;direction:ltr;text-orientation:mixed;dominant-baseline:auto;baseline-shift:baseline;text-anchor:start;white-space:normal;shape-padding:0;clip-rule:nonzero;display:inline;overflow:visible;visibility:visible;opacity:1;isolation:auto;mix-blend-mode:normal;color-interpolation:sRGB;color-interpolation-filters:linearRGB;solid-color:#000000;solid-opacity:1;vector-effect:none;fill:#2e0e7f;fill-opacity:1;fill-rule:nonzero;stroke:none;stroke-width:0.78988105;stroke-linecap:round;stroke-linejoin:round;stroke-miterlimit:4;stroke-dasharray:none;stroke-dashoffset:0;stroke-opacity:1;color-rendering:auto;image-rendering:auto;shape-rendering:auto;text-rendering:auto;enable-background:accumulate"
         inkscape:connector-curvature="0" />
    </g>
  </g>
</svg>
