<?xml version="1.0" encoding="UTF-8" standalone="no"?>
<!-- Created with Inkscape (http://www.inkscape.org/) -->

<svg
   xmlns:dc="http://purl.org/dc/elements/1.1/"
   xmlns:cc="http://creativecommons.org/ns#"
   xmlns:rdf="http://www.w3.org/1999/02/22-rdf-syntax-ns#"
   xmlns:svg="http://www.w3.org/2000/svg"
   xmlns="http://www.w3.org/2000/svg"
   xmlns:sodipodi="http://sodipodi.sourceforge.net/DTD/sodipodi-0.dtd"
   xmlns:inkscape="http://www.inkscape.org/namespaces/inkscape"
   width="38"
   height="16"
   id="svg3797"
   version="1.1"
   inkscape:version="0.92.4 (5da689c313, 2019-01-14)"
   sodipodi:docname="file_p360.svg"
   inkscape:export-filename="D:\dev\workspaces\potree\develop\resources\icons\point.png"
   inkscape:export-xdpi="90"
   inkscape:export-ydpi="90">
  <defs
     id="defs3799" />
  <sodipodi:namedview
     id="base"
     pagecolor="#ffffff"
     bordercolor="#666666"
     borderopacity="1.0"
     inkscape:pageopacity="0.0"
     inkscape:pageshadow="2"
     inkscape:zoom="31.672167"
     inkscape:cx="17.205129"
     inkscape:cy="8.6298845"
     inkscape:current-layer="layer1"
     showgrid="true"
     inkscape:grid-bbox="true"
     inkscape:document-units="px"
     inkscape:window-width="3840"
     inkscape:window-height="2080"
     inkscape:window-x="-11"
     inkscape:window-y="-11"
     inkscape:window-maximized="1">
    <inkscape:grid
       type="xygrid"
       id="grid3805"
       empspacing="5"
       visible="true"
       enabled="true"
       snapvisiblegridlinesonly="true" />
  </sodipodi:namedview>
  <metadata
     id="metadata3802">
    <rdf:RDF>
      <cc:Work
         rdf:about="">
        <dc:format>image/svg+xml</dc:format>
        <dc:type
           rdf:resource="http://purl.org/dc/dcmitype/StillImage" />
        <dc:title></dc:title>
      </cc:Work>
    </rdf:RDF>
  </metadata>
  <g
     id="layer1"
     inkscape:label="Layer 1"
     inkscape:groupmode="layer"
     transform="translate(0,-16)">
    <g
       id="g5961"
       style="stroke-width:0.6;stroke-miterlimit:4;stroke-dasharray:none;fill:#084a32;fill-opacity:1;stroke:none;stroke-opacity:1">
      <path
         id="path5923"
         style="color:#000000;font-style:italic;font-variant:normal;font-weight:bold;font-stretch:normal;font-size:11.22941494px;line-height:1.25;font-family:Arial;-inkscape-font-specification:'Arial Bold Italic';font-variant-ligatures:normal;font-variant-position:normal;font-variant-caps:normal;font-variant-numeric:normal;font-variant-alternates:normal;font-feature-settings:normal;text-indent:0;text-align:start;text-decoration:none;text-decoration-line:none;text-decoration-style:solid;text-decoration-color:#000000;letter-spacing:0px;word-spacing:0px;text-transform:none;writing-mode:lr-tb;direction:ltr;text-orientation:mixed;dominant-baseline:auto;baseline-shift:baseline;text-anchor:start;white-space:normal;shape-padding:0;clip-rule:nonzero;display:inline;overflow:visible;visibility:visible;opacity:1;isolation:auto;mix-blend-mode:normal;color-interpolation:sRGB;color-interpolation-filters:linearRGB;solid-color:#000000;solid-opacity:1;vector-effect:none;fill:#084a32;fill-opacity:1;fill-rule:nonzero;stroke:none;stroke-width:0.6;stroke-linecap:round;stroke-linejoin:round;stroke-miterlimit:4;stroke-dasharray:none;stroke-dashoffset:0;stroke-opacity:1;color-rendering:auto;image-rendering:auto;shape-rendering:auto;text-rendering:auto;enable-background:accumulate"
         d="m 2.3450084,25.511918 v 0.163457 2.268174 h 2.9099705 v -2.431631 z m 3.5338978,-5.457231 v 0.166016 7.722656 h 3.0234376 v -2.804687 h 1.2617182 c 1.092614,0 1.934555,-0.219947 2.498047,-0.6875 0.561092,-0.462806 0.841797,-1.11397 0.841797,-1.910156 0,-0.773689 -0.255804,-1.398922 -0.77539,-1.835938 -0.51936,-0.440406 -1.289592,-0.650391 -2.275391,-0.650391 z m 3.0234376,1.867188 H 9.46875 c 0.4702501,0 0.755378,0.08494 0.875,0.195312 0.147996,0.136553 0.216797,0.28963 0.216797,0.490235 0,0.202162 -0.07557,0.34834 -0.244141,0.478515 0,0 -0.002,0 -0.002,0 -0.148749,0.11103 -0.4642457,0.19336 -0.9511718,0.19336 H 8.9023438 Z M 32.035156,19.927734 c -1.230947,0 -2.187194,0.300704 -2.816406,0.916016 -0.634687,0.624804 -0.923828,1.668532 -0.923828,3.125 0,0.593696 0.05812,1.13928 0.173828,1.636719 h 0.002 v 0.002 c 0.119624,0.49361 0.284151,0.890647 0.507813,1.193359 0.299641,0.413754 0.689896,0.733124 1.162109,0.949219 0.479657,0.219501 1.09113,0.322266 1.830078,0.322266 1.317611,0 2.292016,-0.334013 2.859375,-1.021485 0.56235,-0.681403 0.824219,-1.717388 0.824219,-3.107422 0,-0.623845 -0.08125,-1.224007 -0.244141,-1.800781 v -0.002 c -0.08448,-0.305351 -0.199226,-0.576402 -0.34375,-0.810547 l -0.002,-0.002 c -0.142362,-0.240053 -0.335231,-0.464546 -0.580078,-0.673828 -0.254187,-0.220675 -0.579542,-0.395429 -0.966797,-0.525391 h -0.002 c -0.399443,-0.137279 -0.890437,-0.201172 -1.480469,-0.201172 z m -0.08398,1.72461 c 0.321562,0 0.526315,0.121679 0.695312,0.429687 h 0.0039 c 0.161965,0.286425 0.269531,0.954925 0.269531,1.949219 0,0.677956 -0.04417,1.17464 -0.123047,1.472656 v 0.002 c -0.07668,0.303485 -0.196687,0.509481 -0.337891,0.628907 -0.144065,0.121725 -0.296147,0.175781 -0.49414,0.175781 -0.298099,0 -0.499747,-0.119588 -0.673828,-0.433594 -0.162377,-0.301804 -0.265625,-0.949503 -0.265625,-1.902344 0,-0.943217 0.09432,-1.5884 0.24414,-1.888672 0.154481,-0.312652 0.352279,-0.433593 0.681641,-0.433593 z m -7.164063,-1.72461 c -1.189435,0 -2.150099,0.336019 -2.835937,1.007813 -0.693959,0.676074 -1.023438,1.717793 -1.023438,3.105469 0,0.947494 0.154276,1.72151 0.478516,2.320312 h 0.002 c 0.323906,0.587126 0.762737,1.026665 1.316406,1.302734 0.555264,0.276866 1.274021,0.408204 2.150391,0.408204 0.732068,0 1.353374,-0.105393 1.857422,-0.330078 v -0.002 c 0.505042,-0.226944 0.904447,-0.565283 1.185547,-1.003906 0.284375,-0.437303 0.425781,-0.922756 0.425781,-1.447266 0,-0.773713 -0.283842,-1.431941 -0.845703,-1.943359 -0.556033,-0.509864 -1.256264,-0.773437 -2.0625,-0.773437 -0.414737,0 -0.789581,0.06574 -1.117188,0.201171 -0.184461,0.07436 -0.354012,0.220987 -0.529297,0.339844 0.07249,-0.493585 0.150784,-0.994349 0.240235,-1.136719 0.191082,-0.307197 0.41414,-0.43164 0.736328,-0.43164 0.17433,0 0.297813,0.04439 0.408203,0.136719 0.102073,0.08313 0.201663,0.254413 0.259766,0.527343 l 0.03125,0.152344 L 28.21875,22.060547 28.15625,21.875 C 28.014166,21.451433 27.80368,21.093164 27.523438,20.804687 27.243441,20.516462 26.889407,20.296682 26.46875,20.150391 26.041416,19.997004 25.481934,19.927734 24.787109,19.927734 Z m -0.01563,4.273438 c 0.27407,0 0.479953,0.08438 0.667969,0.277344 0.179496,0.18422 0.283203,0.465735 0.283203,0.867187 0,0.391431 -0.100095,0.660838 -0.269531,0.830078 -0.179685,0.179475 -0.37889,0.257813 -0.642578,0.257813 -0.289733,0 -0.513762,-0.08922 -0.716797,-0.289063 -0.197609,-0.198025 -0.302734,-0.474088 -0.302734,-0.855469 0,-0.37467 0.102741,-0.63746 0.285156,-0.816406 0,0 0,-0.002 0,-0.002 0.19425,-0.185676 0.411885,-0.269531 0.695312,-0.269531 z m -7.660607,-4.27429 c -0.996162,0 -1.789642,0.17187 -2.36578,0.536281 -0.565077,0.360044 -0.94907,0.884113 -1.144464,1.5464 l -0.04985,0.172638 2.631644,0.416903 0.027,-0.168965 c 0.05907,-0.355808 0.175064,-0.582164 0.301174,-0.688717 h 0.0021 c 0.139457,-0.12057 0.308443,-0.179984 0.550423,-0.179984 0.236667,0 0.393845,0.05439 0.510959,0.157945 0.118757,0.105007 0.178627,0.237719 0.178627,0.435269 0,0.198295 -0.07854,0.353727 -0.257556,0.503223 v 0.0018 c -0.17232,0.146618 -0.374526,0.216717 -0.645968,0.216717 -0.05754,0 -0.155248,-0.0073 -0.282481,-0.02388 l -0.199399,-0.02571 -0.155779,1.911878 0.255479,-0.06428 c 0.317535,-0.08022 0.563088,-0.117541 0.718664,-0.117541 0.311265,0 0.52595,0.07728 0.691664,0.235082 l 0.0021,0.0018 c 0.167255,0.15626 0.257557,0.379471 0.257557,0.701572 0,0.31356 -0.09309,0.541761 -0.272097,0.71443 -0.178583,0.175452 -0.380903,0.255284 -0.654275,0.255284 -0.263995,0 -0.460305,-0.06514 -0.623121,-0.196514 -0.14781,-0.125469 -0.28851,-0.389586 -0.378025,-0.795238 l -0.03323,-0.150599 -2.7625,0.323237 0.06023,0.183658 c 0.161042,0.487705 0.393819,0.901287 0.699972,1.234181 v 0.0018 c 0.311302,0.33031 0.709409,0.582269 1.181851,0.752998 0.485435,0.173912 1.120925,0.253448 1.912978,0.253448 0.815977,0 1.486759,-0.10909 2.012678,-0.341604 h 0.0021 c 0.51876,-0.232988 0.924439,-0.569562 1.202622,-0.999099 0.27472,-0.427816 0.413336,-0.881201 0.413336,-1.349885 0,-0.372652 -0.08421,-0.703116 -0.26171,-0.98257 -0.170449,-0.277858 -0.414041,-0.503883 -0.72282,-0.672188 -0.124885,-0.06871 -0.325267,-0.115904 -0.50265,-0.168966 0.273912,-0.16834 0.553753,-0.335932 0.716588,-0.549136 0.222011,-0.290683 0.334409,-0.622331 0.334409,-0.978897 0,-0.60018 -0.281168,-1.119342 -0.814212,-1.513342 -0.550097,-0.406604 -1.39937,-0.589541 -2.538174,-0.589541 z" />
    </g>
  </g>
</svg>
