<?xml version="1.0" encoding="UTF-8" standalone="no"?>
<!-- Created with Inkscape (http://www.inkscape.org/) -->

<svg
   xmlns:dc="http://purl.org/dc/elements/1.1/"
   xmlns:cc="http://creativecommons.org/ns#"
   xmlns:rdf="http://www.w3.org/1999/02/22-rdf-syntax-ns#"
   xmlns:svg="http://www.w3.org/2000/svg"
   xmlns="http://www.w3.org/2000/svg"
   xmlns:sodipodi="http://sodipodi.sourceforge.net/DTD/sodipodi-0.dtd"
   xmlns:inkscape="http://www.inkscape.org/namespaces/inkscape"
   width="32px"
   height="32px"
   id="svg3797"
   version="1.1"
   inkscape:version="0.92.4 (5da689c313, 2019-01-14)"
   sodipodi:docname="setupcontrols.svg"
   inkscape:export-filename="D:\dev\workspaces\potree\develop\resources\icons\fps_controls.png"
   inkscape:export-xdpi="90"
   inkscape:export-ydpi="90">
  <defs
     id="defs3799">
    <marker
       inkscape:stockid="Arrow1Lstart"
       orient="auto"
       refY="0.0"
       refX="0.0"
       id="Arrow1Lstart"
       style="overflow:visible">
      <path
         id="path3832"
         d="M 0.0,0.0 L 5.0,-5.0 L -12.5,0.0 L 5.0,5.0 L 0.0,0.0 z "
         style="fill-rule:evenodd;stroke:#000000;stroke-width:1.0pt"
         transform="scale(0.8) translate(12.5,0)" />
    </marker>
    <marker
       inkscape:stockid="DotL"
       orient="auto"
       refY="0.0"
       refX="0.0"
       id="DotL"
       style="overflow:visible">
      <path
         id="path3893"
         d="M -2.5,-1.0 C -2.5,1.7600000 -4.7400000,4.0 -7.5,4.0 C -10.260000,4.0 -12.5,1.7600000 -12.5,-1.0 C -12.5,-3.7600000 -10.260000,-6.0 -7.5,-6.0 C -4.7400000,-6.0 -2.5,-3.7600000 -2.5,-1.0 z "
         style="fill-rule:evenodd;stroke:#000000;stroke-width:1.0pt"
         transform="scale(0.8) translate(7.4, 1)" />
    </marker>
  </defs>
  <sodipodi:namedview
     id="base"
     pagecolor="#ffffff"
     bordercolor="#666666"
     borderopacity="1.0"
     inkscape:pageopacity="0.0"
     inkscape:pageshadow="2"
     inkscape:zoom="63.344333"
     inkscape:cx="13.844631"
     inkscape:cy="10.52168"
     inkscape:current-layer="layer1"
     showgrid="true"
     inkscape:grid-bbox="true"
     inkscape:document-units="px"
     inkscape:window-width="3840"
     inkscape:window-height="2080"
     inkscape:window-x="-11"
     inkscape:window-y="-11"
     inkscape:window-maximized="1">
    <inkscape:grid
       type="xygrid"
       id="grid3805" />
  </sodipodi:namedview>
  <metadata
     id="metadata3802">
    <rdf:RDF>
      <cc:Work
         rdf:about="">
        <dc:format>image/svg+xml</dc:format>
        <dc:type
           rdf:resource="http://purl.org/dc/dcmitype/StillImage" />
        <dc:title />
      </cc:Work>
    </rdf:RDF>
  </metadata>
  <g
     id="layer1"
     inkscape:label="Layer 1"
     inkscape:groupmode="layer">
    <path
       style="fill:#000000"
       d=""
       id="path3840"
       inkscape:connector-curvature="0" />
    <g
       id="g4895"
       transform="matrix(0.02539381,0,0,0.02696223,0.44629138,-0.4719741)"
       style="fill:none;stroke:#000000;stroke-width:46.8542099;stroke-linejoin:bevel;stroke-miterlimit:4;stroke-dasharray:none;stroke-opacity:1">
      <ellipse
         cy="464.64032"
         cx="612.5"
         style="fill:none;fill-opacity:1;stroke:#000000;stroke-width:46.8542099;stroke-linejoin:bevel;stroke-miterlimit:4;stroke-dasharray:none;stroke-opacity:1"
         id="ellipse4837"
         ry="125.485"
         rx="148.284" />
      <path
         inkscape:connector-curvature="0"
         id="line4861"
         d="m 246.7852,171.85547 v 0.21289 l -0.0957,-0.18946 -146.28516,73.14258 0.0957,0.19141 h -0.21484 v 731.42772 h 0.21484 l -0.0957,0.1934 146.28515,73.14259 0.0957,-0.1915 V 1050 H 978.2149 v -0.2149 l 0.096,0.1915 146.2851,-73.14259 -0.096,-0.1934 h 0.2148 V 245.21289 h -0.2145 l 0.096,-0.19141 -146.2851,-73.14258 -0.096,0.18946 v -0.21289 H 795.35746 v 0.21484 h -0.21484 V 756.99804 H 429.85746 V 172.07031 h -0.21484 v -0.21484 z m 0.0508,0.42968 h 182.59177 v 584.92774 h 0.21485 v 0.21484 h 365.71484 v -0.21484 h 0.21485 V 172.28515 H 978.1641 l 146.1211,73.06055 V 976.50781 L 978.1641,1049.5684 H 246.83598 L 100.71489,976.50781 V 245.3457 Z"
         style="color:#000000;font-style:normal;font-variant:normal;font-weight:normal;font-stretch:normal;font-size:medium;line-height:normal;font-family:sans-serif;font-variant-ligatures:normal;font-variant-position:normal;font-variant-caps:normal;font-variant-numeric:normal;font-variant-alternates:normal;font-feature-settings:normal;text-indent:0;text-align:start;text-decoration:none;text-decoration-line:none;text-decoration-style:solid;text-decoration-color:#000000;letter-spacing:normal;word-spacing:normal;text-transform:none;writing-mode:lr-tb;direction:ltr;text-orientation:mixed;dominant-baseline:auto;baseline-shift:baseline;text-anchor:start;white-space:normal;shape-padding:0;clip-rule:nonzero;display:inline;overflow:visible;visibility:visible;opacity:1;isolation:auto;mix-blend-mode:normal;color-interpolation:sRGB;color-interpolation-filters:linearRGB;solid-color:#000000;solid-opacity:1;vector-effect:none;fill:none;fill-opacity:1;fill-rule:nonzero;stroke:#000000;stroke-width:46.8542099;stroke-linecap:butt;stroke-linejoin:bevel;stroke-miterlimit:4;stroke-dasharray:none;stroke-dashoffset:0;stroke-opacity:1;color-rendering:auto;image-rendering:auto;shape-rendering:auto;text-rendering:auto;enable-background:accumulate" />
      <path
         inkscape:connector-curvature="0"
         id="path4888"
         d="M 173.44919,1012.2218 101.04241,975.94071 V 610.92701 245.91326 l 72.67477,-36.34058 72.67478,-36.34058 h 91.12183 91.12183 V 465.57108 757.91007 H 612.50003 796.36444 V 465.57108 173.2321 h 91.12183 91.12182 l 72.67481,36.34058 72.6747,36.34058 v 365.01376 365.01379 l -72.6747,36.34049 -72.67481,36.3406 -366.37606,-0.06 -366.37607,-0.059 z"
         style="opacity:1;fill:none;fill-opacity:1;stroke:#000000;stroke-width:46.8542099;stroke-linejoin:bevel;stroke-miterlimit:4;stroke-dasharray:none;stroke-opacity:1" />
    </g>
  </g>
</svg>
